<svg width="178" height="38" viewBox="0 0 178 38" fill="none" xmlns="http://www.w3.org/2000/svg">
<path d="M25.5241 16.7266V10.4291C25.5241 4.70721 20.5781 0.0545654 14.504 0.0545654C8.42225 0.0545654 3.46765 4.70753 3.46765 10.4291V16.7266H9.5498V10.4291C9.5498 7.86754 11.7733 5.77576 14.5038 5.77576C17.2266 5.77576 19.4501 7.86754 19.4501 10.4291L19.4498 16.7266H25.5241Z" fill="#F07D00"/>
<path d="M0.0603027 20.7207V35.4676C0.0603027 36.8394 1.24473 37.9457 2.69447 37.9457H26.3053C27.7554 37.9457 28.9395 36.8394 28.9395 35.4676V20.7207C28.9398 19.3489 27.7557 18.2426 26.3057 18.2426H2.69482C1.24507 18.2426 0.0606478 19.3489 0.0606478 20.7207H0.0603027ZM8.70248 28.1077C9.01703 27.8118 9.5268 27.8118 9.84168 28.1077L12.3676 30.484L19.1581 24.0958C19.4727 23.7998 19.9824 23.7998 20.2973 24.0958C20.6119 24.3917 20.6119 24.8713 20.2973 25.1675L12.9371 32.0917C12.7796 32.2398 12.5736 32.3137 12.3676 32.3137C12.1616 32.3137 11.9553 32.2398 11.7982 32.0917L8.70253 29.1794C8.38764 28.8832 8.38764 28.4036 8.70253 28.1077H8.70248Z" fill="#F07D00"/>
<g clip-path="url(#clip0_1_352)">
<path d="M63.9267 28.7309H75.7688V33.2267H58.4249V2.84998H63.9267V28.7309Z" fill="black"/>
<path d="M87.4697 11.8416C89.0377 11.8416 90.4558 12.0913 91.7239 12.5909C93.0056 13.0904 94.0964 13.7992 94.9963 14.7172C95.8962 15.6353 96.5916 16.7558 97.0825 18.0789C97.5733 19.402 97.8188 20.8803 97.8188 22.5139C97.8188 24.161 97.5733 25.646 97.0825 26.9691C96.5916 28.2922 95.8962 29.4195 94.9963 30.351C94.0964 31.2826 93.0056 31.9981 91.7239 32.4976C90.4558 32.9972 89.0377 33.2469 87.4697 33.2469C85.9017 33.2469 84.4768 32.9972 83.1951 32.4976C81.9134 31.9981 80.8158 31.2826 79.9022 30.351C79.0023 29.4195 78.3001 28.2922 77.7956 26.9691C77.3047 25.646 77.0593 24.161 77.0593 22.5139C77.0593 20.8803 77.3047 19.402 77.7956 18.0789C78.3001 16.7558 79.0023 15.6353 79.9022 14.7172C80.8158 13.7992 81.9134 13.0904 83.1951 12.5909C84.4768 12.0913 85.9017 11.8416 87.4697 11.8416ZM87.4697 29.3992C89.215 29.3992 90.5035 28.8187 91.3353 27.6576C92.1806 26.4966 92.6033 24.7955 92.6033 22.5544C92.6033 20.3133 92.1806 18.6054 91.3353 17.4309C90.5035 16.2563 89.215 15.669 87.4697 15.669C85.6971 15.669 84.3882 16.2631 83.5428 17.4511C82.6974 18.6257 82.2747 20.3268 82.2747 22.5544C82.2747 24.782 82.6974 26.4831 83.5428 27.6576C84.3882 28.8187 85.6971 29.3992 87.4697 29.3992Z" fill="black"/>
<path d="M116.507 16.5601C116.357 16.7491 116.207 16.8976 116.057 17.0056C115.92 17.1136 115.716 17.1676 115.443 17.1676C115.184 17.1676 114.932 17.0934 114.686 16.9448C114.441 16.7828 114.148 16.6073 113.807 16.4183C113.466 16.2158 113.057 16.0403 112.58 15.8918C112.116 15.7298 111.537 15.6488 110.841 15.6488C109.955 15.6488 109.178 15.8108 108.51 16.1348C107.842 16.4453 107.283 16.8976 106.833 17.4916C106.396 18.0857 106.069 18.8079 105.851 19.6585C105.633 20.4955 105.524 21.4473 105.524 22.5139C105.524 23.6209 105.64 24.6065 105.871 25.4705C106.117 26.3346 106.464 27.0636 106.914 27.6576C107.364 28.2382 107.91 28.6837 108.551 28.9942C109.192 29.2912 109.914 29.4397 110.719 29.4397C111.523 29.4397 112.171 29.3452 112.662 29.1562C113.166 28.9537 113.589 28.7377 113.93 28.5082C114.271 28.2652 114.564 28.0492 114.809 27.8602C115.068 27.6576 115.355 27.5564 115.668 27.5564C116.077 27.5564 116.384 27.7116 116.589 28.0222L118.041 29.8448C117.482 30.4928 116.875 31.0396 116.22 31.4851C115.566 31.9171 114.884 32.2681 114.175 32.5381C113.48 32.7947 112.757 32.9769 112.007 33.0849C111.257 33.1929 110.514 33.2469 109.778 33.2469C108.483 33.2469 107.262 33.0107 106.117 32.5381C104.971 32.0521 103.969 31.3501 103.11 30.432C102.265 29.514 101.59 28.3934 101.085 27.0704C100.595 25.7338 100.349 24.215 100.349 22.5139C100.349 20.9883 100.567 19.5775 101.004 18.2814C101.454 16.9718 102.108 15.8445 102.967 14.8995C103.826 13.9409 104.89 13.1917 106.158 12.6516C107.426 12.1116 108.885 11.8416 110.535 11.8416C112.103 11.8416 113.473 12.0913 114.646 12.5909C115.832 13.0904 116.895 13.8059 117.836 14.7375L116.507 16.5601Z" fill="black"/>
<path d="M126.368 2.85012V20.0838H127.308C127.649 20.0838 127.915 20.0365 128.106 19.942C128.297 19.8475 128.501 19.672 128.72 19.4155L133.935 13.0364C134.167 12.7664 134.412 12.5571 134.671 12.4086C134.93 12.2466 135.271 12.1656 135.694 12.1656H140.316L133.792 19.8812C133.56 20.1648 133.321 20.428 133.076 20.671C132.831 20.9006 132.565 21.1031 132.278 21.2786C132.565 21.4811 132.817 21.7173 133.035 21.9874C133.253 22.2574 133.471 22.5476 133.69 22.8581L140.684 32.9432H136.123C135.728 32.9432 135.394 32.8757 135.121 32.7407C134.849 32.6056 134.603 32.3761 134.385 32.0521L129.047 24.1745C128.842 23.8639 128.638 23.6614 128.433 23.5669C128.229 23.4724 127.922 23.4252 127.513 23.4252H126.368V32.9432H121.316V2.85012H126.368Z" fill="black"/>
<path d="M151.258 11.8416C152.58 11.8416 153.794 12.0508 154.898 12.4694C156.016 12.8879 156.978 13.5022 157.782 14.3122C158.587 15.1088 159.214 16.0943 159.664 17.2689C160.114 18.4299 160.339 19.7597 160.339 21.2583C160.339 21.6363 160.318 21.9536 160.277 22.2101C160.25 22.4531 160.189 22.6489 160.093 22.7974C160.012 22.9324 159.896 23.0337 159.746 23.1012C159.596 23.1552 159.405 23.1822 159.173 23.1822H146.206C146.356 25.3153 146.935 26.8814 147.944 27.8804C148.953 28.8795 150.29 29.379 151.953 29.379C152.771 29.379 153.473 29.2845 154.06 29.0955C154.66 28.9065 155.178 28.6972 155.614 28.4677C156.064 28.2382 156.453 28.0289 156.78 27.8399C157.121 27.6509 157.448 27.5564 157.762 27.5564C157.966 27.5564 158.144 27.5969 158.294 27.6779C158.443 27.7589 158.573 27.8737 158.682 28.0222L160.155 29.8448C159.596 30.4928 158.968 31.0396 158.273 31.4851C157.578 31.9171 156.848 32.2681 156.085 32.5381C155.335 32.7947 154.564 32.9769 153.773 33.0849C152.996 33.1929 152.24 33.2469 151.503 33.2469C150.044 33.2469 148.688 33.0107 147.433 32.5381C146.179 32.0521 145.088 31.3433 144.161 30.4118C143.234 29.4667 142.504 28.3057 141.972 26.9286C141.441 25.538 141.175 23.9315 141.175 22.1089C141.175 20.6913 141.406 19.3615 141.87 18.1194C142.334 16.8638 142.995 15.777 143.854 14.859C144.727 13.9274 145.783 13.1917 147.024 12.6516C148.279 12.1116 149.69 11.8416 151.258 11.8416ZM151.36 15.426C149.887 15.426 148.735 15.8378 147.904 16.6613C147.072 17.4849 146.54 18.6527 146.308 20.1648H155.798C155.798 19.5167 155.71 18.9092 155.532 18.3422C155.355 17.7616 155.082 17.2554 154.714 16.8233C154.346 16.3913 153.883 16.0538 153.324 15.8108C152.764 15.5543 152.11 15.426 151.36 15.426Z" fill="black"/>
<path d="M164.437 32.9432V12.1656H167.402C167.92 12.1656 168.282 12.2601 168.486 12.4491C168.691 12.6381 168.827 12.9621 168.895 13.4212L169.202 15.9323C169.952 14.6497 170.832 13.6372 171.841 12.8946C172.85 12.1521 173.981 11.7808 175.236 11.7808C176.272 11.7808 177.131 12.0171 177.813 12.4896L177.158 16.2361C177.117 16.4791 177.029 16.6546 176.892 16.7626C176.756 16.8571 176.572 16.9043 176.34 16.9043C176.136 16.9043 175.856 16.8571 175.502 16.7626C175.147 16.6681 174.677 16.6208 174.09 16.6208C173.04 16.6208 172.141 16.9111 171.391 17.4916C170.641 18.0587 170.007 18.8957 169.488 20.0028V32.9432H164.437Z" fill="black"/>
<path d="M53.75 2.84998V7.47398H41.2744V16.1386H51.1031V20.6113H41.2744V29.4488H53.75V34.0944H36V2.84998H53.75Z" fill="#F07D00"/>
<path fill-rule="evenodd" clip-rule="evenodd" d="M53.75 38L36 38L36 36.0472L53.75 36.0472L53.75 38Z" fill="black"/>
</g>
<defs>
<clipPath id="clip0_1_352">
<rect width="142" height="35.15" fill="white" transform="translate(36 2.84998)"/>
</clipPath>
</defs>
</svg>
