<svg width="124" height="20" viewBox="0 0 124 20" fill="none" xmlns="http://www.w3.org/2000/svg">
<g clip-path="url(#clip0_1_1011)">
<path fill-rule="evenodd" clip-rule="evenodd" d="M9.59175 1.32654C7.75098 1.32654 5.91413 1.49317 4.50365 1.83475C3.79844 2.00554 3.20129 2.21479 2.74585 2.49841C2.32168 2.76255 1.99432 3.13492 1.95064 3.59256C1.9451 3.6441 1.94261 3.66152 1.93878 3.6942V7.7001C1.93878 7.71007 1.93878 7.72004 1.93878 7.73V11.7419C1.93878 11.7499 1.93878 11.7578 1.93878 11.7658V15.8016C1.93878 16.3073 2.2905 16.7078 2.74595 16.9914C3.20138 17.275 3.79851 17.4902 4.50374 17.661C5.91422 18.0026 7.75107 18.1633 9.59184 18.1633C11.4326 18.1633 13.2695 18.0026 14.6799 17.661C15.3852 17.4902 15.9883 17.275 16.4437 16.9914C16.8992 16.7078 17.2449 16.3073 17.2449 15.8016V11.7658V11.7299V7.73V7.68815V3.6942C17.2449 3.66601 17.2409 3.64144 17.239 3.61648C17.2048 3.14765 16.8753 2.76715 16.4438 2.49841C15.9883 2.21479 15.3852 2.00554 14.68 1.83475C13.2695 1.49317 11.4327 1.32654 9.59188 1.32654H9.59175ZM9.59175 2.09184C11.3862 2.09184 13.1845 2.25745 14.5005 2.57614C15.1585 2.73548 15.6973 2.93853 16.0371 3.15012C16.3558 3.34861 16.4669 3.5168 16.4795 3.66431C16.4795 3.67405 16.4795 3.68464 16.4795 3.6942C16.4795 3.84878 16.3768 4.02073 16.0371 4.23231C15.6973 4.44389 15.1585 4.64694 14.5005 4.80629C13.1845 5.12498 11.3862 5.29058 9.59175 5.29058C7.79732 5.29058 5.99896 5.12498 4.68304 4.80629C4.02506 4.64694 3.48619 4.44389 3.14643 4.23231C2.80668 4.02073 2.70399 3.84878 2.70399 3.6942C2.70399 3.53963 2.80668 3.3617 3.14643 3.15012C3.48619 2.93853 4.02506 2.73548 4.68304 2.57614C5.99896 2.25745 7.79732 2.09184 9.59175 2.09184ZM2.70399 4.85412C2.71834 4.86336 2.73137 4.87501 2.74585 4.88402C3.20129 5.16764 3.79842 5.37689 4.50365 5.54768C5.91413 5.88926 7.75098 6.05589 9.59175 6.05589C11.4325 6.05589 13.2694 5.88926 14.6798 5.54768C15.3851 5.37689 15.9882 5.16764 16.4436 4.88402C16.4561 4.87627 16.4672 4.86802 16.4795 4.8601V7.7001V7.73C16.4795 7.88457 16.3768 8.05651 16.0371 8.26809C15.6973 8.47968 15.1585 8.68273 14.5005 8.84207C13.1845 9.16076 11.3862 9.32638 9.59175 9.32638C7.79732 9.32638 5.99896 9.16076 4.68304 8.84207C4.02506 8.68273 3.48619 8.47968 3.14643 8.26809C2.80668 8.05651 2.70399 7.88457 2.70399 7.73C2.70399 7.71607 2.70399 7.70208 2.70399 7.68815V4.85412ZM2.70399 8.8899C2.71834 8.89909 2.73137 8.9108 2.74585 8.91981C3.20129 9.20341 3.79842 9.41866 4.50365 9.58945C5.91413 9.93103 7.75098 10.0917 9.59175 10.0917C11.4325 10.0917 13.2694 9.93103 14.6798 9.58945C15.3851 9.41866 15.9882 9.20341 16.4436 8.91981C16.4561 8.91216 16.4672 8.90374 16.4795 8.89589V11.7419V11.7658C16.4795 11.9204 16.3768 12.0983 16.0371 12.3099C15.6973 12.5215 15.1585 12.7185 14.5005 12.8779C13.1845 13.1966 11.3862 13.3622 9.59175 13.3622C7.79732 13.3622 5.99896 13.1966 4.68304 12.8779C4.02506 12.7185 3.48619 12.5215 3.14643 12.3099C2.80668 12.0983 2.70399 11.9204 2.70399 11.7658C2.70399 11.7539 2.70399 11.7419 2.70399 11.7299V8.8899ZM2.70399 12.9257C2.71853 12.9351 2.73114 12.9464 2.74585 12.9556C3.20129 13.2392 3.79842 13.4545 4.50365 13.6252C5.91413 13.9668 7.75098 14.1275 9.59175 14.1275C11.4325 14.1275 13.2694 13.9668 14.6798 13.6252C15.3851 13.4545 15.9882 13.2392 16.4436 12.9556C16.4563 12.9477 16.467 12.9397 16.4795 12.9317V15.8016C16.4795 15.9562 16.3768 16.1341 16.0371 16.3457C15.6973 16.5573 15.1585 16.7543 14.5005 16.9137C13.1845 17.2324 11.3862 17.398 9.59175 17.398C7.79732 17.398 5.99896 17.2324 4.68304 16.9137C4.02506 16.7543 3.48619 16.5573 3.14643 16.3457C2.80668 16.1341 2.70399 15.9562 2.70399 15.8016V12.9257Z" fill="#0098AB"/>
<path d="M16.8453 17.2092C16.6557 17.3988 16.3972 17.5194 16.1214 17.5194C16.018 17.5194 15.9146 17.5022 15.8284 17.4677L15.0011 17.2092L14.3462 17.8124C14.329 17.8296 14.2945 17.8469 14.2773 17.8641L15.3114 21.0698C15.3459 21.1733 15.501 21.2077 15.5699 21.1216L16.3283 20.1564C16.3627 20.1047 16.4317 20.0874 16.4834 20.1047L17.6554 20.4494C17.776 20.4839 17.8794 20.3804 17.8277 20.2598L16.8453 17.2092Z" fill="white"/>
<path d="M13.0189 17.2092L12.1916 17.4677C12.0882 17.5022 12.002 17.5194 11.8986 17.5194C11.6228 17.5194 11.3643 17.3988 11.1747 17.2092L10.1923 20.2426C10.1579 20.346 10.2613 20.4666 10.3647 20.4322L11.5367 20.0874C11.5884 20.0702 11.6573 20.0874 11.6918 20.1392L12.4501 21.1043C12.5191 21.1905 12.6742 21.1733 12.7087 21.0526L13.7428 17.8469C13.7255 17.8296 13.6911 17.8124 13.6738 17.7952L13.0189 17.2092Z" fill="white"/>
<path d="M19.7923 11.3148C19.8785 11.1769 19.8267 10.9873 19.7061 10.9011L18.8099 10.2806C18.7237 10.2117 18.672 10.1083 18.672 10.0049L18.7409 8.91907C18.7582 8.76395 18.6375 8.60884 18.4824 8.5916L17.3966 8.41925C17.2932 8.40201 17.1898 8.33307 17.1553 8.22966L16.7589 7.19555C16.7072 7.04044 16.5348 6.9715 16.3797 7.00597L15.3284 7.3162C15.225 7.35067 15.1043 7.3162 15.0354 7.24726L14.2253 6.50615C14.1047 6.40274 13.9151 6.40274 13.8117 6.50615L12.9844 7.24726C12.8982 7.3162 12.7948 7.35067 12.6914 7.3162L11.64 7.00597C11.4849 6.95426 11.3126 7.04044 11.2609 7.19555L10.8472 8.21243C10.8128 8.31584 10.7093 8.38478 10.6059 8.40201L9.52012 8.57437C9.36501 8.5916 9.24436 8.74672 9.2616 8.90183L9.33054 9.98765C9.33054 10.0911 9.27883 10.1945 9.19266 10.2634L8.29643 10.8839C8.15855 10.9701 8.12408 11.1596 8.21025 11.2975L8.74454 12.2455C8.79625 12.3489 8.79625 12.4523 8.74454 12.5557L8.21025 13.5036C8.12408 13.6415 8.17578 13.8311 8.29643 13.9173L9.19266 14.5377C9.27883 14.6067 9.33054 14.7101 9.33054 14.8135L9.2616 15.8993C9.24436 16.0544 9.36501 16.2095 9.52012 16.2268L10.6059 16.3991C10.7093 16.4164 10.8128 16.4853 10.8472 16.5887L11.2609 17.6056C11.3126 17.7607 11.4849 17.8296 11.64 17.7952L12.6914 17.4849C12.7948 17.4505 12.9154 17.4849 12.9844 17.5539L13.7944 18.295C13.9151 18.3984 14.1047 18.3984 14.2081 18.295L15.0181 17.5539C15.1043 17.4849 15.2077 17.4505 15.3111 17.4849L16.3625 17.7952C16.5176 17.8469 16.6899 17.7607 16.7417 17.6056L17.1553 16.5887C17.1898 16.4853 17.2932 16.4164 17.3966 16.3991L18.4824 16.2268C18.6375 16.2095 18.7582 16.0544 18.7409 15.8993L18.672 14.8307C18.672 14.7273 18.7237 14.6239 18.8099 14.555L19.7061 13.9345C19.844 13.8483 19.8785 13.6587 19.7923 13.5209L19.258 12.5729C19.2063 12.4695 19.2063 12.3661 19.258 12.2627L19.7923 11.3148Z" fill="white"/>
<path d="M16.6139 16.7182C16.4477 16.8843 16.2212 16.99 15.9795 16.99C15.8889 16.99 15.7983 16.9749 15.7228 16.9447L14.9978 16.7182L14.4239 17.2468C14.4088 17.2619 14.3786 17.277 14.3635 17.2921L15.2697 20.1012C15.2999 20.1918 15.4358 20.222 15.4962 20.1465L16.1608 19.3008C16.191 19.2554 16.2514 19.2403 16.2967 19.2554L17.3237 19.5575C17.4294 19.5877 17.52 19.4971 17.4747 19.3914L16.6139 16.7182Z" fill="#FFD965"/>
<path d="M13.2608 16.7182L12.5359 16.9447C12.4453 16.9749 12.3697 16.99 12.2791 16.99C12.0375 16.99 11.8109 16.8843 11.6448 16.7182L10.7839 19.3763C10.7537 19.4669 10.8443 19.5726 10.935 19.5424L11.962 19.2403C12.0073 19.2252 12.0677 19.2403 12.0979 19.2857L12.7624 20.1314C12.8228 20.2069 12.9588 20.1918 12.989 20.0861L13.8951 17.277C13.88 17.2619 13.8498 17.2468 13.8347 17.2317L13.2608 16.7182Z" fill="#FFD965"/>
<path d="M19.1963 11.5529C19.2718 11.4321 19.2265 11.266 19.1207 11.1905L18.3354 10.6468C18.2599 10.5863 18.2146 10.4957 18.2146 10.4051L18.275 9.45362C18.2901 9.31769 18.1844 9.18177 18.0484 9.16666L17.0969 9.01563C17.0063 9.00053 16.9157 8.94012 16.8855 8.8495L16.5381 7.94332C16.4928 7.8074 16.3418 7.74698 16.2059 7.77719L15.2846 8.04904C15.194 8.07925 15.0882 8.04904 15.0278 7.98863L14.318 7.3392C14.2123 7.24859 14.0461 7.24859 13.9555 7.3392L13.2306 7.98863C13.1551 8.04904 13.0645 8.07925 12.9738 8.04904L12.0526 7.77719C11.9166 7.73188 11.7656 7.8074 11.7203 7.94332L11.3578 8.8344C11.3276 8.92502 11.237 8.98543 11.1464 9.00053L10.1949 9.15156C10.059 9.16666 9.95324 9.30259 9.96834 9.43852L10.0288 10.39C10.0288 10.4806 9.98344 10.5712 9.90793 10.6317L9.12257 11.1754C9.00175 11.2509 8.97155 11.417 9.04706 11.5378L9.51525 12.3685C9.56056 12.4591 9.56056 12.5497 9.51525 12.6403L9.04706 13.471C8.97155 13.5918 9.01685 13.758 9.12257 13.8335L9.90793 14.3772C9.98344 14.4376 10.0288 14.5282 10.0288 14.6188L9.96834 15.5703C9.95324 15.7062 10.059 15.8422 10.1949 15.8573L11.1464 16.0083C11.237 16.0234 11.3276 16.0838 11.3578 16.1744L11.7203 17.0655C11.7656 17.2014 11.9166 17.2619 12.0526 17.2316L12.9738 16.9598C13.0645 16.9296 13.1702 16.9598 13.2306 17.0202L13.9404 17.6696C14.0461 17.7603 14.2123 17.7603 14.3029 17.6696L15.0127 17.0202C15.0883 16.9598 15.1789 16.9296 15.2695 16.9598L16.1908 17.2316C16.3267 17.277 16.4777 17.2014 16.523 17.0655L16.8855 16.1744C16.9157 16.0838 17.0063 16.0234 17.0969 16.0083L18.0484 15.8573C18.1844 15.8422 18.2901 15.7062 18.275 15.5703L18.2146 14.6339C18.2146 14.5433 18.2599 14.4527 18.3354 14.3923L19.1207 13.8486C19.2416 13.7731 19.2718 13.6069 19.1963 13.4861L18.7281 12.6554C18.6828 12.5648 18.6828 12.4742 18.7281 12.3836L19.1963 11.5529Z" fill="#FFD965"/>
<path fill-rule="evenodd" clip-rule="evenodd" d="M14.1714 8.72144C15.1887 8.72144 16.1643 9.12804 16.8835 9.85178C17.6028 10.5755 18.0068 11.5571 18.0067 12.5806C18.0067 14.1415 17.0721 15.5487 15.6387 16.146C14.2054 16.7433 12.5555 16.413 11.4586 15.3092C10.3616 14.2054 10.0336 12.5455 10.6274 11.1034C11.2212 9.66137 12.62 8.72125 14.1714 8.72144ZM12.5119 10.2809C12.3495 10.2437 12.1803 10.2487 12.0203 10.2954C12.0257 10.301 12.0293 10.3047 12.0315 10.307L12.0347 10.3103L12.0811 10.3173C12.3587 10.3425 12.6243 10.4427 12.8499 10.6073C12.9408 10.6703 13.025 10.7426 13.101 10.8231C13.1711 10.9016 13.2472 10.9982 13.2704 11.0912C13.2936 11.1841 13.3456 11.2598 13.3702 11.3467C13.451 11.6325 13.4844 12.0472 13.2987 12.3003C13.2342 12.3891 13.1233 12.4783 13.2092 12.6184C13.2129 12.6254 13.1989 12.6408 13.1989 12.653C13.1919 12.6951 13.1898 12.7379 13.1929 12.7805C13.2124 12.9052 13.2361 13.0294 13.2588 13.1541C13.2607 13.1625 13.2653 13.1704 13.2653 13.1788C13.3972 13.5525 13.5503 13.9084 13.8795 14.1596C14.0187 14.2661 14.0238 14.3586 13.931 14.5038C13.8349 14.6584 13.7314 14.8102 13.6385 14.9671H13.7648L13.775 14.948C13.8437 14.8322 13.9161 14.721 13.9881 14.6038C14.06 14.4865 14.1283 14.3679 14.2035 14.253C14.2244 14.2222 14.2555 14.1997 14.2912 14.1895L14.3102 14.1858C14.3322 14.1815 14.3548 14.1894 14.3695 14.2065C14.3842 14.2235 14.3886 14.2471 14.3813 14.2684C14.3599 14.3306 14.3418 14.3959 14.3256 14.4627C14.2889 14.6122 14.2606 14.7668 14.2248 14.9045C14.2731 14.8947 14.2959 14.8975 14.346 14.8873C14.3655 14.7696 14.41 14.6042 14.4444 14.4739C14.4606 14.4109 14.4922 14.2451 14.5409 14.1909C14.5897 14.1367 14.7419 14.0919 14.8626 14.0331C14.8869 14.0204 14.9129 14.0113 14.9397 14.006C14.9646 14.0036 14.9898 14.0047 15.0144 14.0092C15.0698 14.0178 15.1244 14.0306 15.1778 14.0475C15.3389 14.1162 15.4741 14.2349 15.5636 14.3861C15.6583 14.5426 15.8277 14.664 15.967 14.7826C16.0346 14.8406 16.1256 14.8627 16.2121 14.842H16.2149C16.2975 14.8975 16.4558 14.9433 16.5296 14.9158C16.6034 14.8882 16.7125 14.8326 16.7125 14.7434C16.728 14.7362 16.7425 14.7269 16.7557 14.7159C16.7887 14.6851 16.7924 14.6338 16.764 14.5986C16.6688 14.4394 16.453 14.3679 16.3082 14.2628C16.1045 14.1159 15.9034 13.9646 15.7047 13.8089C15.6686 13.7834 15.6362 13.7529 15.6086 13.7183C15.5446 13.6309 15.5436 13.5002 15.5088 13.3974C15.4695 13.2798 15.4132 13.1687 15.3417 13.0677C15.2866 12.9927 15.2356 12.9147 15.189 12.8342C15.0581 12.6058 14.9281 12.3774 14.7215 12.2083C14.6087 12.1159 14.618 12.0005 14.6213 11.8688C14.6257 11.7068 14.5857 11.5466 14.5057 11.406C14.3297 11.0973 14.0025 10.9656 13.6636 10.9389C13.6046 10.9359 13.5473 10.9179 13.497 10.8866C13.4269 10.8328 13.3614 10.7733 13.3011 10.7087C13.0851 10.4918 12.8108 10.3431 12.5119 10.2809Z" fill="#0098AB"/>
</g>
<path d="M25.145 5.02C26.085 5.02 26.81 5.245 27.32 5.695C27.83 6.135 28.145 6.815 28.265 7.735L27.02 7.9C26.97 7.18 26.78 6.625 26.45 6.235C26.13 5.845 25.695 5.65 25.145 5.65C24.555 5.65 24.1 5.795 23.78 6.085C23.47 6.365 23.315 6.765 23.315 7.285C23.315 7.765 23.44 8.13 23.69 8.38C23.95 8.62 24.41 8.825 25.07 8.995L25.895 9.205C26.785 9.455 27.415 9.785 27.785 10.195C28.155 10.605 28.34 11.175 28.34 11.905C28.34 12.765 28.06 13.425 27.5 13.885C26.94 14.345 26.14 14.575 25.1 14.575C24.11 14.575 23.35 14.355 22.82 13.915C22.3 13.465 21.985 12.78 21.875 11.86L23.09 11.68C23.17 12.4 23.38 12.955 23.72 13.345C24.06 13.735 24.52 13.93 25.1 13.93C26.4 13.93 27.05 13.38 27.05 12.28C27.05 11.95 26.995 11.685 26.885 11.485C26.775 11.285 26.59 11.12 26.33 10.99C26.08 10.85 25.71 10.72 25.22 10.6L24.455 10.405C23.565 10.175 22.94 9.855 22.58 9.445C22.23 9.025 22.055 8.435 22.055 7.675C22.055 6.805 22.315 6.145 22.835 5.695C23.365 5.245 24.135 5.02 25.145 5.02Z" fill="#0098AB"/>
<path d="M36.0758 7.195V14.395H35.0858L34.6658 13.495C33.9958 14.215 33.2108 14.575 32.3108 14.575C31.5308 14.575 30.9558 14.375 30.5858 13.975C30.2158 13.565 30.0308 12.99 30.0308 12.25V7.195H31.5458V12.1C31.5458 13.22 31.9858 13.78 32.8658 13.78C33.5158 13.78 34.0808 13.465 34.5608 12.835V7.195H36.0758Z" fill="#0098AB"/>
<path d="M42.2207 7.015C43.7607 7.015 44.5307 7.78 44.5307 9.31V14.395H43.0157V9.43C43.0157 8.89 42.9207 8.495 42.7307 8.245C42.5407 7.985 42.2407 7.855 41.8307 7.855C41.2207 7.855 40.6207 8.085 40.0307 8.545V14.395H38.5157V7.195H39.1757L39.7757 7.945C40.1357 7.665 40.5307 7.44 40.9607 7.27C41.4007 7.1 41.8207 7.015 42.2207 7.015Z" fill="#0098AB"/>
<path d="M50.0761 7.015C51.1661 7.015 51.9211 7.36 52.3411 8.05C52.7611 8.74 52.9711 9.655 52.9711 10.795C52.9711 11.935 52.7611 12.85 52.3411 13.54C51.9211 14.23 51.1661 14.575 50.0761 14.575C49.3161 14.575 48.6211 14.305 47.9911 13.765L47.5111 14.395H46.8361V4.885L48.3511 4.69V7.465C48.9211 7.165 49.4961 7.015 50.0761 7.015ZM49.7161 13.72C50.3361 13.72 50.7811 13.465 51.0511 12.955C51.3211 12.435 51.4561 11.715 51.4561 10.795C51.4561 9.825 51.3161 9.08 51.0361 8.56C50.7661 8.03 50.3211 7.765 49.7011 7.765C49.2011 7.765 48.7511 7.88 48.3511 8.11V13.255C48.7311 13.565 49.1861 13.72 49.7161 13.72Z" fill="#0098AB"/>
<path d="M55.6427 6.25C55.3827 6.25 55.1627 6.16 54.9827 5.98C54.8027 5.79 54.7127 5.57 54.7127 5.32C54.7127 5.06 54.8027 4.84 54.9827 4.66C55.1627 4.47 55.3827 4.375 55.6427 4.375C55.9027 4.375 56.1227 4.47 56.3027 4.66C56.4927 4.84 56.5877 5.06 56.5877 5.32C56.5877 5.57 56.4927 5.79 56.3027 5.98C56.1127 6.16 55.8927 6.25 55.6427 6.25ZM56.3627 14.395H54.8777V7.195H56.3627V14.395Z" fill="#0098AB"/>
<path d="M60.2131 8.56C60.4431 8.13 60.7631 7.785 61.1731 7.525C61.5931 7.265 62.0931 7.135 62.6731 7.135V8.245C61.1331 8.245 60.3631 8.845 60.3631 10.045H60.3481V14.395H58.8331V7.195H59.4931L60.2131 8.56Z" fill="#0098AB"/>
<path d="M69.5558 4.69V14.395H68.6408L68.2058 13.585C67.6558 14.245 66.9558 14.575 66.1058 14.575C64.2958 14.575 63.3908 13.335 63.3908 10.855C63.3908 8.295 64.3558 7.015 66.2858 7.015C66.8958 7.015 67.4808 7.195 68.0408 7.555V4.885L69.5558 4.69ZM66.5258 13.825C67.1258 13.825 67.6308 13.545 68.0408 12.985V8.32C67.6108 8 67.1458 7.84 66.6458 7.84C66.0758 7.84 65.6408 8.095 65.3408 8.605C65.0508 9.115 64.9058 9.865 64.9058 10.855C64.9058 11.835 65.0408 12.575 65.3108 13.075C65.5908 13.575 65.9958 13.825 66.5258 13.825Z" fill="#0098AB"/>
<path d="M76.4927 10.885V10.915C76.4927 11.975 76.6177 12.725 76.8677 13.165C77.1277 13.605 77.5677 13.825 78.1877 13.825C79.2077 13.825 79.7427 13.3 79.7927 12.25L81.0377 12.31C80.9677 13.01 80.7127 13.565 80.2727 13.975C79.8327 14.375 79.1227 14.575 78.1427 14.575C77.0127 14.575 76.2027 14.265 75.7127 13.645C75.2227 13.015 74.9777 12.065 74.9777 10.795C74.9777 9.655 75.2077 8.74 75.6677 8.05C76.1377 7.36 76.9577 7.015 78.1277 7.015C79.2577 7.015 80.0427 7.36 80.4827 8.05C80.9227 8.73 81.1427 9.625 81.1427 10.735V10.885H76.4927ZM78.0977 7.765C77.5677 7.765 77.1827 7.96 76.9427 8.35C76.7027 8.74 76.5577 9.335 76.5077 10.135H79.6727C79.6427 9.355 79.5077 8.765 79.2677 8.365C79.0377 7.965 78.6477 7.765 78.0977 7.765Z" fill="#0098AB"/>
<path d="M87.787 13.63V14.395H83.047V5.2H84.577V13.63H87.787Z" fill="#0098AB"/>
<path d="M91.8407 14.575C90.6307 14.575 89.7857 14.23 89.3057 13.54C88.8357 12.84 88.6007 11.925 88.6007 10.795C88.6007 9.655 88.8357 8.74 89.3057 8.05C89.7857 7.36 90.6307 7.015 91.8407 7.015C93.0407 7.015 93.8807 7.365 94.3607 8.065C94.8407 8.755 95.0807 9.665 95.0807 10.795C95.0807 13.315 94.0007 14.575 91.8407 14.575ZM91.8407 13.825C92.5007 13.825 92.9507 13.56 93.1907 13.03C93.4407 12.5 93.5657 11.755 93.5657 10.795C93.5657 9.825 93.4457 9.08 93.2057 8.56C92.9657 8.03 92.5107 7.765 91.8407 7.765C91.1707 7.765 90.7157 8.025 90.4757 8.545C90.2357 9.065 90.1157 9.815 90.1157 10.795C90.1157 11.765 90.2357 12.515 90.4757 13.045C90.7157 13.565 91.1707 13.825 91.8407 13.825Z" fill="#0098AB"/>
<path d="M97.9673 10.795C97.9673 11.795 98.0773 12.55 98.2973 13.06C98.5273 13.57 98.9523 13.825 99.5723 13.825C100.082 13.825 100.447 13.67 100.667 13.36C100.897 13.05 101.022 12.58 101.042 11.95L102.332 11.995C102.272 12.835 102.032 13.475 101.612 13.915C101.192 14.355 100.502 14.575 99.5423 14.575C98.3623 14.575 97.5523 14.235 97.1123 13.555C96.6723 12.865 96.4523 11.945 96.4523 10.795C96.4523 9.635 96.6723 8.715 97.1123 8.035C97.5523 7.355 98.3623 7.015 99.5423 7.015C100.502 7.015 101.187 7.225 101.597 7.645C102.017 8.055 102.257 8.66 102.317 9.46L101.042 9.625C101.022 8.995 100.897 8.53 100.667 8.23C100.447 7.92 100.082 7.765 99.5723 7.765C98.9523 7.765 98.5273 8.02 98.2973 8.53C98.0773 9.03 97.9673 9.785 97.9673 10.795Z" fill="#0098AB"/>
<path d="M108.518 14.395L106.298 11.05L105.773 11.62V14.395H104.258V4.885L105.773 4.69V10.705L109.058 7.195H109.928L107.228 10.06L110.153 14.395H108.518Z" fill="#0098AB"/>
<path d="M112.499 10.885V10.915C112.499 11.975 112.624 12.725 112.874 13.165C113.134 13.605 113.574 13.825 114.194 13.825C115.214 13.825 115.749 13.3 115.799 12.25L117.044 12.31C116.974 13.01 116.719 13.565 116.279 13.975C115.839 14.375 115.129 14.575 114.149 14.575C113.019 14.575 112.209 14.265 111.719 13.645C111.229 13.015 110.984 12.065 110.984 10.795C110.984 9.655 111.214 8.74 111.674 8.05C112.144 7.36 112.964 7.015 114.134 7.015C115.264 7.015 116.049 7.36 116.489 8.05C116.929 8.73 117.149 9.625 117.149 10.735V10.885H112.499ZM114.104 7.765C113.574 7.765 113.189 7.96 112.949 8.35C112.709 8.74 112.564 9.335 112.514 10.135H115.679C115.649 9.355 115.514 8.765 115.274 8.365C115.044 7.965 114.654 7.765 114.104 7.765Z" fill="#0098AB"/>
<path d="M120.433 8.56C120.663 8.13 120.983 7.785 121.393 7.525C121.813 7.265 122.313 7.135 122.893 7.135V8.245C121.353 8.245 120.583 8.845 120.583 10.045H120.568V14.395H119.053V7.195H119.713L120.433 8.56Z" fill="#0098AB"/>
<defs>
<clipPath id="clip0_1_1011">
<rect width="21.0204" height="20" fill="white"/>
</clipPath>
</defs>
</svg>
