<svg width="16" height="16" viewBox="0 0 16 16" fill="none" xmlns="http://www.w3.org/2000/svg">
<path d="M8 0C5.87829 0 3.84331 0.842797 2.34316 2.34316C0.842797 3.8434 0 5.8782 0 8C0 10.1218 0.842797 12.1567 2.34316 13.6568C3.8434 15.1572 5.8782 16 8 16C10.1218 16 12.1567 15.1572 13.6568 13.6568C15.1572 12.1566 16 10.1218 16 8C16 5.8782 15.1572 3.84331 13.6568 2.34316C12.1566 0.842797 10.1218 0 8 0ZM8.07413 13.9065C6.52315 13.8544 5.05308 13.2017 3.97428 12.0861C2.89557 10.9705 2.29254 9.47943 2.29254 7.92761C2.29254 6.37567 2.89557 4.8846 3.97428 3.76911C5.05311 2.6535 6.52315 2.00078 8.07413 1.94875V13.9065Z" fill="#F6F8FC"/>
</svg>
